<svg xmlns="http://www.w3.org/2000/svg" width="35.476" height="44.703" viewBox="0 0 35.476 44.703">
  <g id="shop_cart" data-name="shop cart" transform="translate(-4.096 -1)">
    <g id="Layer_2" data-name="Layer 2" transform="translate(4.096 1)">
      <path id="Path_1" data-name="Path 1" d="M18.892,20.746a8.941,8.941,0,0,1-8.777-7.182,1.509,1.509,0,0,1,2.98-.477,5.96,5.96,0,0,0,11.668,0,1.509,1.509,0,0,1,2.98.477A8.941,8.941,0,0,1,18.892,20.746Z" transform="translate(-1.154 4.318)" fill="#e5e0ff"/>
      <path id="Path_2" data-name="Path 2" d="M35.1,42.4H8.572A4.47,4.47,0,0,1,4.1,37.706L5.309,12.017A4.47,4.47,0,0,1,9.779,7.74h24.11a4.47,4.47,0,0,1,4.47,4.277l1.207,25.689A4.47,4.47,0,0,1,35.1,42.4ZM9.779,10.735a1.49,1.49,0,0,0-1.49,1.49L7.082,37.855a1.49,1.49,0,0,0,1.49,1.565H35.1a1.49,1.49,0,0,0,1.49-1.565L35.379,12.166a1.49,1.49,0,0,0-1.49-1.49Z" transform="translate(-4.096 2.303)" fill="#e5e0ff"/>
      <path id="Path_3" data-name="Path 3" d="M27.881,12.548H24.9V9.941a5.96,5.96,0,0,0-11.921,0v2.608H10V9.941a8.941,8.941,0,1,1,17.881,0Z" transform="translate(-1.203 -1)" fill="#e5e0ff"/>
    </g>
  </g>
</svg>
